<svg width="34" height="34" viewBox="0 0 34 34" fill="none" xmlns="http://www.w3.org/2000/svg">
<rect width="34" height="34" rx="5" fill="#4FB279"/>
<path d="M21.2499 19.5499C21.2499 19.7754 21.1604 19.9916 21.0009 20.151C20.8415 20.3104 20.6253 20.3999 20.3999 20.3999H13.5999C13.3745 20.3999 13.1583 20.3104 12.9989 20.151C12.8395 19.9916 12.7499 19.7754 12.7499 19.5499C12.7499 19.3245 12.8395 19.1083 12.9989 18.9489C13.1583 18.7895 13.3745 18.6999 13.5999 18.6999H20.3999C20.6253 18.6999 20.8415 18.7895 21.0009 18.9489C21.1604 19.1083 21.2499 19.3245 21.2499 19.5499ZM20.3999 15.2999H13.5999C13.3745 15.2999 13.1583 15.3895 12.9989 15.5489C12.8395 15.7083 12.7499 15.9245 12.7499 16.1499C12.7499 16.3754 12.8395 16.5916 12.9989 16.751C13.1583 16.9104 13.3745 16.9999 13.5999 16.9999H20.3999C20.6253 16.9999 20.8415 16.9104 21.0009 16.751C21.1604 16.5916 21.2499 16.3754 21.2499 16.1499C21.2499 15.9245 21.1604 15.7083 21.0009 15.5489C20.8415 15.3895 20.6253 15.2999 20.3999 15.2999ZM26.3499 8.49994V26.3499C26.3499 26.8008 26.1708 27.2332 25.852 27.552C25.5332 27.8708 25.1008 28.0499 24.6499 28.0499H9.3499C8.89903 28.0499 8.46663 27.8708 8.14782 27.552C7.82901 27.2332 7.6499 26.8008 7.6499 26.3499V8.49994C7.6499 8.04908 7.82901 7.61667 8.14782 7.29786C8.46663 6.97905 8.89903 6.79994 9.3499 6.79994H13.2025C13.6801 6.26521 14.2653 5.83738 14.9197 5.54445C15.5741 5.25152 16.2829 5.1001 16.9999 5.1001C17.7169 5.1001 18.4257 5.25152 19.0801 5.54445C19.7345 5.83738 20.3197 6.26521 20.7973 6.79994H24.6499C25.1008 6.79994 25.5332 6.97905 25.852 7.29786C26.1708 7.61667 26.3499 8.04908 26.3499 8.49994ZM13.5999 10.1999H20.3999C20.3999 9.29821 20.0417 8.4334 19.4041 7.79578C18.7664 7.15816 17.9016 6.79994 16.9999 6.79994C16.0982 6.79994 15.2334 7.15816 14.5957 7.79578C13.9581 8.4334 13.5999 9.29821 13.5999 10.1999ZM24.6499 8.49994H21.8077C22.0011 9.04587 22.0999 9.62078 22.0999 10.1999V11.0499C22.0999 11.2754 22.0104 11.4916 21.8509 11.651C21.6915 11.8104 21.4753 11.8999 21.2499 11.8999H12.7499C12.5245 11.8999 12.3083 11.8104 12.1489 11.651C11.9895 11.4916 11.8999 11.2754 11.8999 11.0499V10.1999C11.8999 9.62078 11.9987 9.04587 12.1921 8.49994H9.3499V26.3499H24.6499V8.49994Z" fill="white"/>
</svg>
