<svg width="16" height="14" viewBox="0 0 16 14" fill="none" xmlns="http://www.w3.org/2000/svg">
<g clip-path="url(#clip0_117792_7031)">
<path d="M8.42959 8.46525H2.51033V6.0937H8.42959C8.77534 6.0937 9.01576 6.15472 9.1364 6.26128C9.25706 6.36783 9.3318 6.56546 9.3318 6.85416V7.7057C9.3318 8.00989 9.25706 8.20752 9.1364 8.31408C9.01576 8.42063 8.77534 8.46616 8.42959 8.46616V8.46525ZM8.83567 3.85785H0V13.9998H2.51033V10.7002H7.1366L9.3318 13.9998H12.1429L9.72257 10.6847C10.6149 10.5508 11.0156 10.274 11.346 9.81769C11.6764 9.36142 11.8421 8.63192 11.8421 7.65835V6.89788C11.8421 6.32048 11.7818 5.86419 11.6764 5.51448C11.5711 5.16475 11.391 4.86056 11.1353 4.58735C10.8652 4.32869 10.5644 4.14655 10.2034 4.02451C9.84233 3.91795 9.39121 3.85693 8.83567 3.85693V3.85785Z" fill="#100943"/>
<path d="M14.0692 3.85714C15.1343 3.85714 15.9978 2.99369 15.9978 1.92857C15.9978 0.863451 15.1343 0 14.0692 0C13.0041 0 12.1406 0.863451 12.1406 1.92857C12.1406 2.99369 13.0041 3.85714 14.0692 3.85714Z" fill="#ED143B"/>
</g>
<defs>
<clipPath id="clip0_117792_7031">
<rect width="16" height="14" fill="white"/>
</clipPath>
</defs>
</svg>
