<svg width="49" height="49" viewBox="0 0 49 49" fill="none" xmlns="http://www.w3.org/2000/svg">
<rect opacity="0.2" width="49" height="49" rx="3" fill="#4FB279"/>
<g clip-path="url(#clip0_117734_2544)">
<path d="M22.8174 22.8782C25.3212 22.8806 27.7644 22.1089 29.8125 20.6687V20.3939C28.2628 18.2481 27.1428 16.6973 25.4387 14.3379H25.0962C24.4119 14.7674 23.6204 14.9953 22.8125 14.9953C22.0046 14.9953 21.2131 14.7674 20.5288 14.3379H20.1862C18.4822 16.6973 17.3622 18.2481 15.8125 20.3939V20.6687C17.8606 22.1089 20.3038 22.8806 22.8076 22.8782H22.8174Z" stroke="#1C1C1C" stroke-width="0.5"/>
<path d="M29.8125 12.625H32.4375" stroke="#1C1C1C" stroke-width="0.5"/>
<path d="M29.8125 14.375H32.4375" stroke="#1C1C1C" stroke-width="0.5"/>
<path d="M34.1875 25.1725V11.4525C34.1875 11.1833 34.0806 10.9251 33.8902 10.7348C33.6999 10.5444 33.4417 10.4375 33.1725 10.4375H12.4525C12.1833 10.4375 11.9251 10.5444 11.7348 10.7348C11.5444 10.9251 11.4375 11.1833 11.4375 11.4525V25.1725C11.4375 25.4417 11.5444 25.6999 11.7348 25.8902C11.9251 26.0806 12.1833 26.1875 12.4525 26.1875H33.5312C33.8213 26.1875 34.0995 26.3027 34.3046 26.5079C34.5098 26.713 34.625 26.9912 34.625 27.2812C34.625 27.5713 34.5098 27.8495 34.3046 28.0546C34.0995 28.2598 33.8213 28.375 33.5312 28.375H11.4375V33.625H21.0625" stroke="#1C1C1C" stroke-width="0.5"/>
<path d="M13.625 31H14.5" stroke="#1C1C1C" stroke-width="0.5"/>
<path d="M15.375 31H16.25" stroke="#1C1C1C" stroke-width="0.5"/>
<path d="M21.8848 31.875H25.8888C26.6976 31.875 27.4845 31.6127 28.1316 31.1274L28.8848 30.5625H31.5098C32.1481 31.4561 32.4912 32.5268 32.4912 33.625C32.4912 34.7232 32.148 35.7939 31.5097 36.6875H28.8847L28.1315 36.1226C27.4845 35.6373 26.6975 35.375 25.8888 35.375H21.8848C21.6527 35.375 21.4301 35.2828 21.266 35.1187C21.102 34.9546 21.0098 34.732 21.0098 34.5V32.75C21.0098 32.5179 21.102 32.2954 21.2661 32.1313C21.4301 31.9672 21.6527 31.875 21.8848 31.875Z" stroke="#1C1C1C" stroke-width="0.5"/>
<path d="M34.4219 35.2391C34.625 35.036 34.7861 34.7948 34.8961 34.5294C35.006 34.264 35.0626 33.9796 35.0626 33.6923C35.0626 33.405 35.006 33.1206 34.8961 32.8552C34.7861 32.5898 34.625 32.3486 34.4219 32.1455" stroke="#1C1C1C" stroke-width="0.5"/>
<path d="M35.6592 36.4764C36.0248 36.1108 36.3148 35.6767 36.5127 35.199C36.7106 34.7213 36.8124 34.2093 36.8124 33.6922C36.8124 33.1751 36.7106 32.6631 36.5127 32.1854C36.3148 31.7077 36.0248 31.2736 35.6592 30.908" stroke="#1C1C1C" stroke-width="0.5"/>
<path d="M36.897 37.7137C37.9636 36.6471 38.5628 35.2005 38.5628 33.6921C38.5628 32.1837 37.9636 30.737 36.897 29.6704" stroke="#1C1C1C" stroke-width="0.5"/>
<path d="M28.8848 30.5625V36.6875" stroke="#1C1C1C" stroke-width="0.5"/>
</g>
<defs>
<clipPath id="clip0_117734_2544">
<rect width="28" height="28" fill="white" transform="translate(11 10)"/>
</clipPath>
</defs>
</svg>
